<svg xmlns="http://www.w3.org/2000/svg" width="21.819" height="21.814" viewBox="0 0 21.819 21.814">
  <path id="Icon_awesome-instagram" data-name="Icon awesome-instagram" d="M10.907,7.552A5.593,5.593,0,1,0,16.5,13.145,5.584,5.584,0,0,0,10.907,7.552Zm0,9.229a3.636,3.636,0,1,1,3.636-3.636,3.643,3.643,0,0,1-3.636,3.636Zm7.126-9.458a1.3,1.3,0,1,1-1.3-1.3A1.3,1.3,0,0,1,18.033,7.323Zm3.7,1.324a6.456,6.456,0,0,0-1.762-4.571A6.5,6.5,0,0,0,15.4,2.314c-1.8-.1-7.2-.1-9,0A6.489,6.489,0,0,0,1.833,4.072,6.477,6.477,0,0,0,.071,8.642c-.1,1.8-.1,7.2,0,9a6.456,6.456,0,0,0,1.762,4.571A6.507,6.507,0,0,0,6.4,23.975c1.8.1,7.2.1,9,0a6.456,6.456,0,0,0,4.571-1.762,6.5,6.5,0,0,0,1.762-4.571c.1-1.8.1-7.194,0-9ZM19.411,19.575a3.681,3.681,0,0,1-2.074,2.074c-1.436.57-4.843.438-6.43.438s-5,.127-6.43-.438A3.681,3.681,0,0,1,2.4,19.575c-.57-1.436-.438-4.843-.438-6.43s-.127-5,.438-6.43A3.681,3.681,0,0,1,4.477,4.641c1.436-.57,4.843-.438,6.43-.438s5-.127,6.43.438a3.681,3.681,0,0,1,2.074,2.074c.57,1.436.438,4.843.438,6.43S19.98,18.144,19.411,19.575Z" transform="translate(0.005 -2.238)" fill="#e11f19"/>
</svg>
