    <svg xmlns="http://www.w3.org/2000/svg" width="21.355" height="21.354" viewBox="0 0 21.355 21.354">
  <path id="Icon_awesome-linkedin-in" data-name="Icon awesome-linkedin-in" d="M4.78,21.355H.353V7.1H4.78ZM2.564,5.153A2.576,2.576,0,1,1,5.128,2.565,2.586,2.586,0,0,1,2.564,5.153Zm18.786,16.2H16.932v-6.94c0-1.654-.033-3.775-2.3-3.775-2.3,0-2.655,1.8-2.655,3.656v7.059H7.553V7.1H11.8V9.043h.062a4.652,4.652,0,0,1,4.189-2.3c4.481,0,5.3,2.951,5.3,6.783v7.832Z" transform="translate(0 -0.001)" fill="#e11f19"/>
</svg>
