<?xml version="1.0" encoding="utf-8"?>
<!-- Generator: Adobe Illustrator 26.4.1, SVG Export Plug-In . SVG Version: 6.00 Build 0)  -->
<svg version="1.1" id="Camada_1" xmlns="http://www.w3.org/2000/svg" xmlns:xlink="http://www.w3.org/1999/xlink" x="0px" y="0px"
	 viewBox="0 0 26 21" style="enable-background:new 0 0 26 21;" xml:space="preserve">
<style type="text/css">
	.st0{fill:#E1231C;}
	.st1{fill:#1E1B32;}
	.st2{fill:#9492B3;}
	.st3{fill:#1E2432;}
	.st4{fill:#C1C9DC;}
	.st5{fill:#1D2435;}
	.st6{fill:#BDCADE;}
	.st7{fill:#ABB7CB;}
	.st8{fill:#99A0B0;}
</style>
<path class="st0" d="M9.2,0.3c0.3,0.4,0.6,0.9,0.9,1.3c0.9,1.3,1.8,2.5,2.7,3.8c0.5,0.8,1.1,1.5,1.6,2.3c0.1,0.1,0.1,0.1,0.2,0
	c0.6-0.7,1.3-1.5,2-2.2c0,0,0-0.1,0.1-0.1c0,0,0,0,0,0c0,0,0.1-0.1,0.1-0.1c0,0,0,0,0,0C16.9,5,16.9,5,17,4.9c0,0,0,0,0,0
	c0.1-0.1,0.2-0.2,0.3-0.4l0,0c0,0,0,0,0,0c0,0,0,0,0,0c0,0,0,0,0,0c0,0,0-0.1,0.1-0.1c0,0,0,0,0,0c0.1,0,0.1-0.1,0.1-0.2
	c0,0,0,0,0,0c0,0,0.1-0.1,0.1-0.1c0,0,0,0,0,0c0,0,0,0,0,0c0,0,0,0,0,0c0,0,0,0,0,0c0,0,0,0,0,0c0,0,0,0,0,0c0,0,0,0,0,0
	c0,0,0.1-0.1,0.1-0.1c0,0,0,0,0,0c0,0,0,0,0,0c0,0,0,0,0,0c0,0,0,0,0,0c0,0,0,0,0,0c0,0,0,0,0,0c0,0,0,0,0,0c0,0,0.1-0.1,0.1-0.1
	c0,0,0,0,0,0c0.1-0.1,0.1-0.1,0.2-0.2c0,0,0,0,0,0c0.1-0.1,0.2-0.2,0.3-0.4c0.5-0.6,1-1.1,1.5-1.7c0.3-0.4,0.6-0.7,1-1.1
	c0.6,0,1.1,0,1.7,0c0,0,0.1,0,0.1,0c-0.3,0.3-0.6,0.7-0.9,1c-1,1.1-1.9,2.2-2.9,3.2c-0.5,0.6-1.1,1.2-1.6,1.8c0,0,0,0,0,0.1
	c-0.3,0.3-0.6,0.6-0.8,0.9c-0.4,0.5-0.8,1-1.3,1.4c0,0,0,0,0,0.1c0.7,0.9,1.3,1.9,2,2.8c0.9,1.3,1.8,2.5,2.7,3.8
	c1.2,1.7,2.4,3.4,3.5,5c0,0,0,0,0,0c0,0-0.1,0-0.1,0c-2,0-4,0-5.9,0c-0.4-0.5-0.7-1-1.1-1.6c-0.6-0.9-1.3-1.8-1.9-2.7
	c-0.8-1.2-1.6-2.3-2.4-3.5c0,0,0-0.1-0.1-0.1c-0.1,0.2-0.3,0.3-0.4,0.5c-0.6,0.7-1.2,1.4-1.8,2.1c0,0,0,0,0,0.1
	c-0.3,0.3-0.5,0.6-0.8,0.9c-0.7,0.9-1.5,1.7-2.2,2.6c-0.5,0.6-1,1.1-1.5,1.7c0,0-0.1,0.1-0.1,0.1c-0.6,0-1.1,0-1.7,0
	c0,0-0.1,0-0.1,0c0.4-0.5,0.8-0.9,1.2-1.4c0.6-0.6,1.1-1.3,1.7-1.9c0.9-1,1.8-2,2.7-3c0,0,0,0,0,0c0.3-0.3,0.5-0.6,0.8-0.9
	c0.5-0.5,1-1.1,1.4-1.6c0.1-0.1,0.1-0.1,0-0.2C10,10,9,8.6,8,7.1C6.5,5,5,2.9,3.5,0.8C3.4,0.6,3.3,0.5,3.2,0.3c0,0,0.1,0,0.1,0
	c1.4,0,2.9,0,4.3,0C8.2,0.3,8.7,0.3,9.2,0.3z M5.9,2C5.9,2,5.9,2.1,5.9,2C6,2.1,6,2.1,6,2.2C6.6,3,7.3,3.9,7.9,4.8
	c1.3,1.9,2.7,3.8,4,5.7c0.7,1,1.4,2,2.1,3c0.5,0.7,1,1.3,1.4,2c0.6,0.9,1.2,1.7,1.8,2.6c0.3,0.4,0.6,0.9,1,1.3c0,0,0.1,0.1,0.1,0.1
	c0.9,0,1.8,0,2.6,0c0,0,0,0,0,0c-0.2-0.2-0.3-0.4-0.5-0.6c-1.1-1.6-2.3-3.2-3.4-4.8c-0.7-0.9-1.3-1.9-2-2.8
	c-1.3-1.8-2.6-3.6-3.9-5.5c-0.7-1-1.4-2-2.1-3C8.9,2.3,8.6,2,8.4,1.6c0,0,0,0,0,0c0,0-0.1,0-0.1,0c-0.8,0-1.7,0-2.5,0
	c0,0-0.1,0-0.1,0c0,0.1,0.1,0.1,0.1,0.2c0,0,0,0,0,0.1C5.8,1.9,5.9,1.9,5.9,2L5.9,2z"/>
<path class="st1" d="M3.2,20.6c0,0,0.1,0,0.1,0c0.6,0,1.1,0,1.7,0c0,0-0.1,0-0.1,0C4.4,20.6,3.8,20.6,3.2,20.6
	C3.2,20.6,3.2,20.7,3.2,20.6z"/>
<path class="st1" d="M22.8,0.3c0,0-0.1,0-0.1,0c-0.6,0-1.1,0-1.7,0c0,0,0.1,0,0.1,0C21.7,0.2,22.2,0.2,22.8,0.3
	C22.8,0.3,22.9,0.2,22.8,0.3z"/>
<path class="st2" d="M17.3,4.5c-0.1,0.1-0.2,0.3-0.3,0.4C17,4.7,17.2,4.6,17.3,4.5C17.3,4.5,17.3,4.5,17.3,4.5z"/>
<path class="st2" d="M18.6,3.1c-0.1,0.1-0.2,0.3-0.3,0.4C18.3,3.2,18.5,3.1,18.6,3.1z"/>
<path class="st2" d="M17,4.9C16.9,5,16.9,5,16.8,5.1C16.8,5,16.9,4.9,17,4.9z"/>
<path class="st2" d="M18.3,3.4c-0.1,0.1-0.1,0.2-0.2,0.2C18.1,3.5,18.2,3.5,18.3,3.4z"/>
<path class="st2" d="M17.6,4.2c0,0.1-0.1,0.1-0.1,0.2C17.4,4.3,17.5,4.2,17.6,4.2z"/>
<path class="st2" d="M18.1,3.6c0,0-0.1,0.1-0.1,0.1C18,3.7,18,3.6,18.1,3.6z"/>
<path class="st2" d="M16.8,5.1c0,0-0.1,0.1-0.1,0.1C16.6,5.2,16.7,5.2,16.8,5.1z"/>
<path class="st2" d="M17.9,3.9c0,0-0.1,0.1-0.1,0.1C17.8,3.9,17.8,3.9,17.9,3.9z"/>
<path class="st2" d="M17.4,4.4C17.4,4.4,17.4,4.4,17.4,4.4C17.4,4.4,17.4,4.4,17.4,4.4z"/>
<path class="st2" d="M17.7,4.1C17.6,4.2,17.6,4.2,17.7,4.1C17.6,4.2,17.6,4.1,17.7,4.1z"/>
<path class="st2" d="M17.8,4C17.8,4,17.8,4,17.8,4C17.7,4,17.8,4,17.8,4z"/>
<path class="st2" d="M17.7,4.1C17.7,4.1,17.7,4.1,17.7,4.1C17.7,4.1,17.7,4.1,17.7,4.1z"/>
<path class="st2" d="M17.7,4C17.7,4,17.7,4,17.7,4C17.7,4,17.7,4,17.7,4z"/>
<path class="st2" d="M17.9,3.8C17.9,3.8,17.9,3.8,17.9,3.8C17.9,3.8,17.9,3.8,17.9,3.8z"/>
<path class="st2" d="M17.4,4.5C17.4,4.5,17.3,4.5,17.4,4.5C17.3,4.5,17.4,4.5,17.4,4.5z"/>
<path class="st2" d="M18,3.8C18,3.8,17.9,3.8,18,3.8C17.9,3.8,17.9,3.8,18,3.8z"/>
<path class="st2" d="M17.9,3.8C17.9,3.8,17.9,3.8,17.9,3.8C17.9,3.8,17.9,3.8,17.9,3.8z"/>
<path class="st3" d="M17.4,20.6c2,0,4,0,5.9,0c0,0,0.1,0,0.1,0c0,0,0,0,0,0c0,0-0.1,0-0.1,0c-1.9,0-3.8,0-5.7,0
	C17.6,20.6,17.5,20.6,17.4,20.6C17.5,20.6,17.5,20.6,17.4,20.6z"/>
<path class="st4" d="M17.5,20.6c0.1,0,0.1,0,0.2,0c1.9,0,3.8,0,5.7,0c0,0,0.1,0,0.1,0c0,0-0.1,0-0.1,0c-1.9,0-3.8,0-5.7,0
	C17.6,20.7,17.5,20.7,17.5,20.6z"/>
<path class="st5" d="M9.2,0.3c-0.5,0-1,0-1.6,0c-1.4,0-2.9,0-4.3,0c-0.1,0-0.1,0-0.1,0c0,0,0,0,0,0c0,0,0.1,0,0.1,0c0,0,0.1,0,0.1,0
	C5.3,0.2,7.3,0.2,9.2,0.3C9.2,0.3,9.2,0.3,9.2,0.3z"/>
<path class="st6" d="M9.2,0.2c-2,0-3.9,0-5.9,0c0,0-0.1,0-0.1,0c0,0,0.1,0,0.2,0c1.9,0,3.7,0,5.6,0C9.1,0.2,9.2,0.2,9.2,0.2z"/>
<path class="st5" d="M8.3,1.6c-0.1,0-0.1,0-0.2,0c-0.7,0-1.4,0-2.1,0c0,0,0,0,0,0c0,0,0,0-0.1,0c0,0-0.1,0-0.1,0c0,0-0.1,0-0.1,0
	c0,0,0.1,0,0.1,0C6.6,1.6,7.4,1.6,8.3,1.6C8.3,1.6,8.3,1.6,8.3,1.6C8.3,1.6,8.3,1.6,8.3,1.6z"/>
<path class="st7" d="M5.6,1.6c0,0,0.1,0,0.1,0c0,0.1,0,0.1,0,0.2C5.7,1.7,5.7,1.7,5.6,1.6z"/>
<path class="st7" d="M5.8,1.8c0.1,0,0.1,0.1,0.1,0.2C5.9,1.9,5.8,1.9,5.8,1.8z"/>
<path class="st7" d="M5.9,2C6,2,6,2,5.9,2C5.9,2.1,5.9,2,5.9,2z"/>
<path class="st7" d="M8.3,1.6C8.3,1.6,8.3,1.6,8.3,1.6C8.4,1.6,8.4,1.6,8.3,1.6C8.4,1.6,8.3,1.6,8.3,1.6z"/>
<path class="st8" d="M21,19.4C21,19.3,21,19.3,21,19.4C21,19.3,21.1,19.3,21,19.4z"/>
<path class="st7" d="M6,1.6c0.7,0,1.4,0,2.1,0c0,0-0.1,0-0.1,0c-0.6,0-1.3,0-1.9,0C6.1,1.6,6,1.6,6,1.6z"/>
<path class="st7" d="M5.9,1.6C5.9,1.6,5.9,1.6,5.9,1.6C5.9,1.6,5.9,1.6,5.9,1.6z"/>
</svg>
