<svg xmlns="http://www.w3.org/2000/svg" width="26.584" height="18.692" viewBox="0 0 26.584 18.692">
  <path id="Icon_awesome-youtube" data-name="Icon awesome-youtube" d="M27.078,7.425a3.34,3.34,0,0,0-2.35-2.366C22.655,4.5,14.342,4.5,14.342,4.5s-8.313,0-10.386.559a3.34,3.34,0,0,0-2.35,2.366,35.041,35.041,0,0,0-.555,6.44,35.041,35.041,0,0,0,.555,6.44,3.291,3.291,0,0,0,2.35,2.328c2.073.559,10.386.559,10.386.559s8.313,0,10.386-.559a3.291,3.291,0,0,0,2.35-2.328,35.041,35.041,0,0,0,.555-6.44,35.041,35.041,0,0,0-.555-6.44ZM11.623,17.817V9.912l6.948,3.953-6.948,3.953Z" transform="translate(-1.05 -4.5)" fill="#e11f19"/>
</svg>
